<mxfile host="app.diagrams.net" agent="Mozilla/5.0 (Macintosh; Intel Mac OS X 10_15_7) AppleWebKit/605.1.15 (KHTML, like Gecko) Version/18.3.1 Safari/605.1.15" version="26.2.12">
  <diagram id="9JSzWubA1vWHXehpiUYo" name="Page-1">
    <mxGraphModel dx="1964" dy="1004" grid="0" gridSize="10" guides="1" tooltips="1" connect="1" arrows="1" fold="1" page="0" pageScale="1" pageWidth="850" pageHeight="1100" math="0" shadow="0">
      <root>
        <mxCell id="0" />
        <mxCell id="1" parent="0" />
        <mxCell id="l7TXlKDY9mEFg8rTpv9u-8" style="edgeStyle=orthogonalEdgeStyle;curved=1;orthogonalLoop=1;jettySize=auto;html=1;exitX=1;exitY=0.5;exitDx=0;exitDy=0;entryX=0.5;entryY=0;entryDx=0;entryDy=0;" parent="1" source="l7TXlKDY9mEFg8rTpv9u-1" target="l7TXlKDY9mEFg8rTpv9u-3" edge="1">
          <mxGeometry relative="1" as="geometry" />
        </mxCell>
        <mxCell id="l7TXlKDY9mEFg8rTpv9u-11" style="edgeStyle=orthogonalEdgeStyle;curved=1;orthogonalLoop=1;jettySize=auto;html=1;exitX=0.5;exitY=1;exitDx=0;exitDy=0;entryX=0.5;entryY=0;entryDx=0;entryDy=0;" parent="1" source="l7TXlKDY9mEFg8rTpv9u-1" target="l7TXlKDY9mEFg8rTpv9u-4" edge="1">
          <mxGeometry relative="1" as="geometry" />
        </mxCell>
        <mxCell id="l7TXlKDY9mEFg8rTpv9u-1" value="&lt;font style=&quot;font-size: 24px&quot;&gt;1&lt;/font&gt;" style="ellipse;whiteSpace=wrap;html=1;aspect=fixed;" parent="1" vertex="1">
          <mxGeometry x="360" y="320" width="80" height="80" as="geometry" />
        </mxCell>
        <mxCell id="l7TXlKDY9mEFg8rTpv9u-9" style="edgeStyle=orthogonalEdgeStyle;curved=1;orthogonalLoop=1;jettySize=auto;html=1;exitX=0.5;exitY=1;exitDx=0;exitDy=0;entryX=1;entryY=0.5;entryDx=0;entryDy=0;" parent="1" source="l7TXlKDY9mEFg8rTpv9u-3" target="l7TXlKDY9mEFg8rTpv9u-5" edge="1">
          <mxGeometry relative="1" as="geometry" />
        </mxCell>
        <mxCell id="l7TXlKDY9mEFg8rTpv9u-12" style="edgeStyle=orthogonalEdgeStyle;curved=1;orthogonalLoop=1;jettySize=auto;html=1;exitX=0;exitY=0.5;exitDx=0;exitDy=0;entryX=1;entryY=0.5;entryDx=0;entryDy=0;" parent="1" source="l7TXlKDY9mEFg8rTpv9u-3" target="l7TXlKDY9mEFg8rTpv9u-4" edge="1">
          <mxGeometry relative="1" as="geometry" />
        </mxCell>
        <mxCell id="l7TXlKDY9mEFg8rTpv9u-3" value="2" style="ellipse;whiteSpace=wrap;html=1;aspect=fixed;" parent="1" vertex="1">
          <mxGeometry x="520" y="480" width="80" height="80" as="geometry" />
        </mxCell>
        <mxCell id="l7TXlKDY9mEFg8rTpv9u-15" style="edgeStyle=orthogonalEdgeStyle;curved=1;orthogonalLoop=1;jettySize=auto;html=1;exitX=0;exitY=0;exitDx=0;exitDy=0;entryX=0;entryY=1;entryDx=0;entryDy=0;" parent="1" source="l7TXlKDY9mEFg8rTpv9u-4" target="l7TXlKDY9mEFg8rTpv9u-1" edge="1">
          <mxGeometry relative="1" as="geometry">
            <Array as="points">
              <mxPoint x="340" y="492" />
              <mxPoint x="340" y="388" />
            </Array>
          </mxGeometry>
        </mxCell>
        <mxCell id="l7TXlKDY9mEFg8rTpv9u-4" value="100" style="ellipse;whiteSpace=wrap;html=1;aspect=fixed;" parent="1" vertex="1">
          <mxGeometry x="360" y="480" width="80" height="80" as="geometry" />
        </mxCell>
        <mxCell id="l7TXlKDY9mEFg8rTpv9u-10" style="edgeStyle=orthogonalEdgeStyle;curved=1;orthogonalLoop=1;jettySize=auto;html=1;exitX=0;exitY=0.5;exitDx=0;exitDy=0;entryX=0.5;entryY=1;entryDx=0;entryDy=0;" parent="1" source="l7TXlKDY9mEFg8rTpv9u-5" target="l7TXlKDY9mEFg8rTpv9u-6" edge="1">
          <mxGeometry relative="1" as="geometry" />
        </mxCell>
        <mxCell id="l7TXlKDY9mEFg8rTpv9u-13" style="edgeStyle=orthogonalEdgeStyle;curved=1;orthogonalLoop=1;jettySize=auto;html=1;exitX=0.5;exitY=0;exitDx=0;exitDy=0;entryX=0.5;entryY=1;entryDx=0;entryDy=0;" parent="1" source="l7TXlKDY9mEFg8rTpv9u-5" target="l7TXlKDY9mEFg8rTpv9u-4" edge="1">
          <mxGeometry relative="1" as="geometry" />
        </mxCell>
        <mxCell id="l7TXlKDY9mEFg8rTpv9u-5" value="3" style="ellipse;whiteSpace=wrap;html=1;aspect=fixed;fontSize=24;" parent="1" vertex="1">
          <mxGeometry x="360" y="640" width="80" height="80" as="geometry" />
        </mxCell>
        <mxCell id="l7TXlKDY9mEFg8rTpv9u-7" style="edgeStyle=orthogonalEdgeStyle;orthogonalLoop=1;jettySize=auto;html=1;exitX=0.5;exitY=0;exitDx=0;exitDy=0;entryX=0;entryY=0.5;entryDx=0;entryDy=0;curved=1;" parent="1" source="l7TXlKDY9mEFg8rTpv9u-6" target="l7TXlKDY9mEFg8rTpv9u-1" edge="1">
          <mxGeometry relative="1" as="geometry" />
        </mxCell>
        <mxCell id="l7TXlKDY9mEFg8rTpv9u-14" style="edgeStyle=orthogonalEdgeStyle;curved=1;orthogonalLoop=1;jettySize=auto;html=1;exitX=1;exitY=0.5;exitDx=0;exitDy=0;" parent="1" source="l7TXlKDY9mEFg8rTpv9u-6" target="l7TXlKDY9mEFg8rTpv9u-4" edge="1">
          <mxGeometry relative="1" as="geometry" />
        </mxCell>
        <mxCell id="l7TXlKDY9mEFg8rTpv9u-6" value="4" style="ellipse;whiteSpace=wrap;html=1;aspect=fixed;" parent="1" vertex="1">
          <mxGeometry x="200" y="480" width="80" height="80" as="geometry" />
        </mxCell>
        <mxCell id="l7TXlKDY9mEFg8rTpv9u-16" style="edgeStyle=orthogonalEdgeStyle;curved=1;orthogonalLoop=1;jettySize=auto;html=1;exitX=1;exitY=0;exitDx=0;exitDy=0;" parent="1" source="l7TXlKDY9mEFg8rTpv9u-4" edge="1">
          <mxGeometry relative="1" as="geometry">
            <mxPoint x="411" y="480" as="targetPoint" />
            <Array as="points">
              <mxPoint x="440" y="492" />
              <mxPoint x="440" y="460" />
              <mxPoint x="411" y="460" />
            </Array>
          </mxGeometry>
        </mxCell>
        <mxCell id="l7TXlKDY9mEFg8rTpv9u-22" style="edgeStyle=orthogonalEdgeStyle;curved=1;orthogonalLoop=1;jettySize=auto;html=1;exitX=1;exitY=0;exitDx=0;exitDy=0;shadow=1;" parent="1" edge="1">
          <mxGeometry relative="1" as="geometry">
            <mxPoint x="428.3" y="331.7" as="sourcePoint" />
            <mxPoint x="411.0157287525379" y="319.9842712474621" as="targetPoint" />
            <Array as="points">
              <mxPoint x="440.0157287525379" y="331.9842712474621" />
              <mxPoint x="440.0157287525379" y="299.9842712474621" />
              <mxPoint x="411.0157287525379" y="299.9842712474621" />
            </Array>
          </mxGeometry>
        </mxCell>
        <mxCell id="l7TXlKDY9mEFg8rTpv9u-24" style="edgeStyle=orthogonalEdgeStyle;curved=1;orthogonalLoop=1;jettySize=auto;html=1;exitX=1;exitY=0;exitDx=0;exitDy=0;" parent="1" edge="1">
          <mxGeometry relative="1" as="geometry">
            <mxPoint x="268.3" y="491.7" as="sourcePoint" />
            <mxPoint x="251.01572875253788" y="479.9842712474621" as="targetPoint" />
            <Array as="points">
              <mxPoint x="280.0157287525379" y="491.9842712474621" />
              <mxPoint x="280.0157287525379" y="459.9842712474621" />
              <mxPoint x="251.01572875253788" y="459.9842712474621" />
            </Array>
          </mxGeometry>
        </mxCell>
        <mxCell id="l7TXlKDY9mEFg8rTpv9u-25" style="edgeStyle=orthogonalEdgeStyle;curved=1;orthogonalLoop=1;jettySize=auto;html=1;exitX=1;exitY=0;exitDx=0;exitDy=0;" parent="1" edge="1">
          <mxGeometry relative="1" as="geometry">
            <mxPoint x="428.28427124746213" y="651.7157287525379" as="sourcePoint" />
            <mxPoint x="411" y="640" as="targetPoint" />
            <Array as="points">
              <mxPoint x="440" y="652" />
              <mxPoint x="440" y="620" />
              <mxPoint x="411" y="620" />
            </Array>
          </mxGeometry>
        </mxCell>
        <mxCell id="l7TXlKDY9mEFg8rTpv9u-26" style="edgeStyle=orthogonalEdgeStyle;curved=1;orthogonalLoop=1;jettySize=auto;html=1;exitX=1;exitY=0;exitDx=0;exitDy=0;" parent="1" edge="1">
          <mxGeometry relative="1" as="geometry">
            <mxPoint x="588.2842712474621" y="491.71572875253787" as="sourcePoint" />
            <mxPoint x="571" y="480" as="targetPoint" />
            <Array as="points">
              <mxPoint x="600" y="492" />
              <mxPoint x="600" y="460" />
              <mxPoint x="571" y="460" />
            </Array>
          </mxGeometry>
        </mxCell>
        <mxCell id="l7TXlKDY9mEFg8rTpv9u-28" value="" style="endArrow=classic;html=1;curved=1;entryX=0;entryY=0;entryDx=0;entryDy=0;" parent="1" target="l7TXlKDY9mEFg8rTpv9u-1" edge="1">
          <mxGeometry width="50" height="50" relative="1" as="geometry">
            <mxPoint x="290" y="310" as="sourcePoint" />
            <mxPoint x="330" y="310" as="targetPoint" />
            <Array as="points">
              <mxPoint x="310" y="290" />
            </Array>
          </mxGeometry>
        </mxCell>
        <mxCell id="l7TXlKDY9mEFg8rTpv9u-31" value="2" style="ellipse;whiteSpace=wrap;html=1;aspect=fixed;fontSize=24;" parent="1" vertex="1">
          <mxGeometry x="520" y="480" width="80" height="80" as="geometry" />
        </mxCell>
        <mxCell id="l7TXlKDY9mEFg8rTpv9u-32" value="100" style="ellipse;whiteSpace=wrap;html=1;aspect=fixed;fontSize=24;" parent="1" vertex="1">
          <mxGeometry x="360" y="480" width="80" height="80" as="geometry" />
        </mxCell>
        <mxCell id="l7TXlKDY9mEFg8rTpv9u-33" value="4" style="ellipse;whiteSpace=wrap;html=1;aspect=fixed;fontSize=24;" parent="1" vertex="1">
          <mxGeometry x="200" y="480" width="80" height="80" as="geometry" />
        </mxCell>
        <mxCell id="l7TXlKDY9mEFg8rTpv9u-34" value="S:FS" style="text;html=1;strokeColor=none;fillColor=none;align=center;verticalAlign=middle;whiteSpace=wrap;rounded=0;fontSize=14;" parent="1" vertex="1">
          <mxGeometry x="230" y="310" width="60" height="30" as="geometry" />
        </mxCell>
        <mxCell id="l7TXlKDY9mEFg8rTpv9u-35" value="START" style="text;html=1;strokeColor=none;fillColor=none;align=center;verticalAlign=middle;whiteSpace=wrap;rounded=0;fontSize=14;" parent="1" vertex="1">
          <mxGeometry x="510" y="340" width="60" height="30" as="geometry" />
        </mxCell>
        <mxCell id="l7TXlKDY9mEFg8rTpv9u-37" value="PB1" style="text;html=1;strokeColor=none;fillColor=none;align=center;verticalAlign=middle;whiteSpace=wrap;rounded=0;fontSize=14;" parent="1" vertex="1">
          <mxGeometry x="550" y="630" width="60" height="30" as="geometry" />
        </mxCell>
        <mxCell id="l7TXlKDY9mEFg8rTpv9u-38" value="PB2" style="text;html=1;strokeColor=none;fillColor=none;align=center;verticalAlign=middle;whiteSpace=wrap;rounded=0;fontSize=14;" parent="1" vertex="1">
          <mxGeometry x="210" y="660" width="60" height="30" as="geometry" />
        </mxCell>
        <mxCell id="l7TXlKDY9mEFg8rTpv9u-40" value="PB3" style="text;html=1;strokeColor=none;fillColor=none;align=center;verticalAlign=middle;whiteSpace=wrap;rounded=0;fontSize=14;" parent="1" vertex="1">
          <mxGeometry x="190" y="360" width="60" height="30" as="geometry" />
        </mxCell>
        <mxCell id="l7TXlKDY9mEFg8rTpv9u-41" value="PB4" style="text;html=1;strokeColor=none;fillColor=none;align=center;verticalAlign=middle;whiteSpace=wrap;rounded=0;fontSize=14;" parent="1" vertex="1">
          <mxGeometry x="410" y="420" width="60" height="30" as="geometry" />
        </mxCell>
        <mxCell id="l7TXlKDY9mEFg8rTpv9u-42" value="PB4" style="text;html=1;strokeColor=none;fillColor=none;align=center;verticalAlign=middle;whiteSpace=wrap;rounded=0;fontSize=14;" parent="1" vertex="1">
          <mxGeometry x="450" y="490" width="60" height="30" as="geometry" />
        </mxCell>
        <mxCell id="l7TXlKDY9mEFg8rTpv9u-43" value="PB4" style="text;html=1;strokeColor=none;fillColor=none;align=center;verticalAlign=middle;whiteSpace=wrap;rounded=0;fontSize=14;" parent="1" vertex="1">
          <mxGeometry x="400" y="580" width="60" height="30" as="geometry" />
        </mxCell>
        <mxCell id="l7TXlKDY9mEFg8rTpv9u-44" value="PB4" style="text;html=1;strokeColor=none;fillColor=none;align=center;verticalAlign=middle;whiteSpace=wrap;rounded=0;fontSize=14;" parent="1" vertex="1">
          <mxGeometry x="290" y="530" width="60" height="30" as="geometry" />
        </mxCell>
        <mxCell id="l7TXlKDY9mEFg8rTpv9u-84" value="Elevator" style="swimlane;horizontal=0;fontSize=14;" parent="1" vertex="1">
          <mxGeometry x="50" y="755" width="684" height="346" as="geometry" />
        </mxCell>
        <mxCell id="l7TXlKDY9mEFg8rTpv9u-87" value="Tag Scope: Controller" style="rounded=0;whiteSpace=wrap;html=1;fontSize=14;" parent="l7TXlKDY9mEFg8rTpv9u-84" vertex="1">
          <mxGeometry x="524" y="126" width="120" height="60" as="geometry" />
        </mxCell>
        <mxCell id="l7TXlKDY9mEFg8rTpv9u-47" value="Continous Task" style="swimlane;fontSize=14;" parent="l7TXlKDY9mEFg8rTpv9u-84" vertex="1">
          <mxGeometry x="44" y="15" width="464" height="313" as="geometry" />
        </mxCell>
        <mxCell id="l7TXlKDY9mEFg8rTpv9u-73" value="Main Program" style="swimlane;fontSize=14;" parent="l7TXlKDY9mEFg8rTpv9u-47" vertex="1">
          <mxGeometry x="22" y="40" width="420" height="255" as="geometry" />
        </mxCell>
        <mxCell id="1HxoKY2s1yAvLXL49XYj-4" value="" style="rounded=0;whiteSpace=wrap;html=1;" vertex="1" parent="l7TXlKDY9mEFg8rTpv9u-73">
          <mxGeometry x="21.5" y="171" width="140" height="60" as="geometry" />
        </mxCell>
        <mxCell id="l7TXlKDY9mEFg8rTpv9u-74" value="Routines" style="swimlane;fontStyle=0;childLayout=stackLayout;horizontal=1;startSize=32;horizontalStack=0;resizeParent=1;resizeParentMax=0;resizeLast=0;collapsible=1;marginBottom=0;fontSize=14;" parent="l7TXlKDY9mEFg8rTpv9u-73" vertex="1">
          <mxGeometry x="22" y="49" width="139" height="122" as="geometry">
            <mxRectangle x="22" y="49" width="82" height="30" as="alternateBounds" />
          </mxGeometry>
        </mxCell>
        <mxCell id="l7TXlKDY9mEFg8rTpv9u-75" value="Main Routine" style="text;strokeColor=none;fillColor=none;align=left;verticalAlign=middle;spacingLeft=4;spacingRight=4;overflow=hidden;points=[[0,0.5],[1,0.5]];portConstraint=eastwest;rotatable=0;fontSize=14;" parent="l7TXlKDY9mEFg8rTpv9u-74" vertex="1">
          <mxGeometry y="32" width="139" height="30" as="geometry" />
        </mxCell>
        <mxCell id="l7TXlKDY9mEFg8rTpv9u-76" value="Input Buffer" style="text;strokeColor=none;fillColor=none;align=left;verticalAlign=middle;spacingLeft=4;spacingRight=4;overflow=hidden;points=[[0,0.5],[1,0.5]];portConstraint=eastwest;rotatable=0;fontSize=14;" parent="l7TXlKDY9mEFg8rTpv9u-74" vertex="1">
          <mxGeometry y="62" width="139" height="30" as="geometry" />
        </mxCell>
        <mxCell id="l7TXlKDY9mEFg8rTpv9u-77" value="Floor FSM" style="text;strokeColor=none;fillColor=none;align=left;verticalAlign=middle;spacingLeft=4;spacingRight=4;overflow=hidden;points=[[0,0.5],[1,0.5]];portConstraint=eastwest;rotatable=0;fontSize=14;" parent="l7TXlKDY9mEFg8rTpv9u-74" vertex="1">
          <mxGeometry y="92" width="139" height="30" as="geometry" />
        </mxCell>
        <mxCell id="l7TXlKDY9mEFg8rTpv9u-54" value="Tag Scope: Main" style="rounded=0;whiteSpace=wrap;html=1;fontSize=14;" parent="l7TXlKDY9mEFg8rTpv9u-73" vertex="1">
          <mxGeometry x="197" y="58" width="120" height="60" as="geometry" />
        </mxCell>
        <mxCell id="1HxoKY2s1yAvLXL49XYj-2" value="MultiCall" style="text;strokeColor=none;fillColor=none;align=left;verticalAlign=middle;spacingLeft=4;spacingRight=4;overflow=hidden;points=[[0,0.5],[1,0.5]];portConstraint=eastwest;rotatable=0;fontSize=14;" vertex="1" parent="l7TXlKDY9mEFg8rTpv9u-73">
          <mxGeometry x="22" y="174" width="139" height="30" as="geometry" />
        </mxCell>
        <mxCell id="1HxoKY2s1yAvLXL49XYj-3" value="Door FSM" style="text;strokeColor=none;fillColor=none;align=left;verticalAlign=middle;spacingLeft=4;spacingRight=4;overflow=hidden;points=[[0,0.5],[1,0.5]];portConstraint=eastwest;rotatable=0;fontSize=14;" vertex="1" parent="l7TXlKDY9mEFg8rTpv9u-73">
          <mxGeometry x="22" y="195" width="139" height="30" as="geometry" />
        </mxCell>
        <mxCell id="l7TXlKDY9mEFg8rTpv9u-93" style="edgeStyle=orthogonalEdgeStyle;rounded=0;orthogonalLoop=1;jettySize=auto;html=1;exitX=1;exitY=0.25;exitDx=0;exitDy=0;entryX=0;entryY=0.25;entryDx=0;entryDy=0;fontSize=14;" parent="1" source="l7TXlKDY9mEFg8rTpv9u-88" target="l7TXlKDY9mEFg8rTpv9u-89" edge="1">
          <mxGeometry relative="1" as="geometry" />
        </mxCell>
        <mxCell id="l7TXlKDY9mEFg8rTpv9u-94" style="edgeStyle=orthogonalEdgeStyle;rounded=0;orthogonalLoop=1;jettySize=auto;html=1;exitX=1;exitY=0.5;exitDx=0;exitDy=0;entryX=0;entryY=0.5;entryDx=0;entryDy=0;fontSize=14;" parent="1" source="l7TXlKDY9mEFg8rTpv9u-88" target="l7TXlKDY9mEFg8rTpv9u-90" edge="1">
          <mxGeometry relative="1" as="geometry" />
        </mxCell>
        <mxCell id="l7TXlKDY9mEFg8rTpv9u-95" style="edgeStyle=orthogonalEdgeStyle;rounded=0;orthogonalLoop=1;jettySize=auto;html=1;exitX=1;exitY=0.75;exitDx=0;exitDy=0;entryX=0;entryY=0.5;entryDx=0;entryDy=0;fontSize=14;" parent="1" source="l7TXlKDY9mEFg8rTpv9u-88" target="l7TXlKDY9mEFg8rTpv9u-91" edge="1">
          <mxGeometry relative="1" as="geometry">
            <Array as="points">
              <mxPoint x="938" y="322" />
              <mxPoint x="938" y="469" />
            </Array>
          </mxGeometry>
        </mxCell>
        <mxCell id="l7TXlKDY9mEFg8rTpv9u-88" value="Main" style="rounded=1;whiteSpace=wrap;html=1;fontSize=14;" parent="1" vertex="1">
          <mxGeometry x="800" y="277" width="120" height="60" as="geometry" />
        </mxCell>
        <mxCell id="l7TXlKDY9mEFg8rTpv9u-89" value="Input Buffer" style="rounded=1;whiteSpace=wrap;html=1;fontSize=14;" parent="1" vertex="1">
          <mxGeometry x="990" y="277" width="120" height="60" as="geometry" />
        </mxCell>
        <mxCell id="l7TXlKDY9mEFg8rTpv9u-97" style="edgeStyle=orthogonalEdgeStyle;rounded=0;orthogonalLoop=1;jettySize=auto;html=1;exitX=1;exitY=0.5;exitDx=0;exitDy=0;fontSize=14;" parent="1" source="l7TXlKDY9mEFg8rTpv9u-90" edge="1">
          <mxGeometry relative="1" as="geometry">
            <mxPoint x="1150" y="388" as="targetPoint" />
          </mxGeometry>
        </mxCell>
        <mxCell id="l7TXlKDY9mEFg8rTpv9u-90" value="Floor FSM" style="rounded=1;whiteSpace=wrap;html=1;fontSize=14;" parent="1" vertex="1">
          <mxGeometry x="990" y="358" width="120" height="60" as="geometry" />
        </mxCell>
        <mxCell id="l7TXlKDY9mEFg8rTpv9u-91" value="Output Buffer" style="rounded=1;whiteSpace=wrap;html=1;fontSize=14;" parent="1" vertex="1">
          <mxGeometry x="990" y="439" width="120" height="60" as="geometry" />
        </mxCell>
        <mxCell id="l7TXlKDY9mEFg8rTpv9u-98" value="Multi-Call" style="rounded=1;whiteSpace=wrap;html=1;fontSize=14;" parent="1" vertex="1">
          <mxGeometry x="1150" y="358" width="120" height="60" as="geometry" />
        </mxCell>
        <mxCell id="bQJ8I5ntVYJIwh4q4RdM-9" value="&lt;font size=&quot;5&quot;&gt;1001&lt;/font&gt;" style="ellipse;whiteSpace=wrap;html=1;aspect=fixed;" parent="1" vertex="1">
          <mxGeometry x="315" y="15" width="80" height="80" as="geometry" />
        </mxCell>
        <mxCell id="bQJ8I5ntVYJIwh4q4RdM-10" style="edgeStyle=orthogonalEdgeStyle;curved=1;orthogonalLoop=1;jettySize=auto;html=1;exitX=1;exitY=0;exitDx=0;exitDy=0;" parent="1" edge="1">
          <mxGeometry relative="1" as="geometry">
            <mxPoint x="380.30999999999995" y="24.939999999999998" as="sourcePoint" />
            <mxPoint x="363.0257287525378" y="13.224271247462127" as="targetPoint" />
            <Array as="points">
              <mxPoint x="392.51" y="25.189999999999998" />
              <mxPoint x="392.51" y="-6.809999999999945" />
              <mxPoint x="363.51" y="-6.809999999999945" />
            </Array>
          </mxGeometry>
        </mxCell>
        <mxCell id="bQJ8I5ntVYJIwh4q4RdM-16" value="SOL0" style="text;html=1;strokeColor=none;fillColor=none;align=center;verticalAlign=middle;whiteSpace=wrap;rounded=0;fontSize=14;" parent="1" vertex="1">
          <mxGeometry x="-130" y="37" width="143" height="30" as="geometry" />
        </mxCell>
        <mxCell id="bQJ8I5ntVYJIwh4q4RdM-36" style="edgeStyle=orthogonalEdgeStyle;curved=1;orthogonalLoop=1;jettySize=auto;html=1;exitX=0.5;exitY=1;exitDx=0;exitDy=0;entryX=0.435;entryY=1.023;entryDx=0;entryDy=0;entryPerimeter=0;" parent="1" source="bQJ8I5ntVYJIwh4q4RdM-53" target="bQJ8I5ntVYJIwh4q4RdM-55" edge="1">
          <mxGeometry relative="1" as="geometry">
            <mxPoint x="453" y="97" as="sourcePoint" />
            <mxPoint x="343" y="188" as="targetPoint" />
            <Array as="points">
              <mxPoint x="594" y="221" />
              <mxPoint x="53" y="221" />
            </Array>
          </mxGeometry>
        </mxCell>
        <mxCell id="bQJ8I5ntVYJIwh4q4RdM-44" style="edgeStyle=orthogonalEdgeStyle;orthogonalLoop=1;jettySize=auto;html=1;exitX=0.5;exitY=0;exitDx=0;exitDy=0;curved=1;entryX=0.5;entryY=0;entryDx=0;entryDy=0;" parent="1" source="bQJ8I5ntVYJIwh4q4RdM-55" target="bQJ8I5ntVYJIwh4q4RdM-53" edge="1">
          <mxGeometry relative="1" as="geometry">
            <mxPoint x="332" y="-144" as="targetPoint" />
            <Array as="points">
              <mxPoint x="58" y="-144" />
              <mxPoint x="594" y="-144" />
            </Array>
          </mxGeometry>
        </mxCell>
        <mxCell id="bQJ8I5ntVYJIwh4q4RdM-49" style="edgeStyle=orthogonalEdgeStyle;curved=1;orthogonalLoop=1;jettySize=auto;html=1;exitX=1;exitY=0;exitDx=0;exitDy=0;" parent="1" edge="1">
          <mxGeometry relative="1" as="geometry">
            <mxPoint x="92.29999999999995" y="28.69999999999999" as="sourcePoint" />
            <mxPoint x="75.01572875253783" y="16.984271247462118" as="targetPoint" />
            <Array as="points">
              <mxPoint x="104.01572875253783" y="28.984271247462118" />
              <mxPoint x="104.01572875253783" y="-3.015728752537825" />
              <mxPoint x="75.01572875253783" y="-3.015728752537825" />
            </Array>
          </mxGeometry>
        </mxCell>
        <mxCell id="bQJ8I5ntVYJIwh4q4RdM-51" style="edgeStyle=orthogonalEdgeStyle;curved=1;orthogonalLoop=1;jettySize=auto;html=1;exitX=1;exitY=0;exitDx=0;exitDy=0;" parent="1" edge="1">
          <mxGeometry relative="1" as="geometry">
            <mxPoint x="629.2842712474621" y="22.71572875253787" as="sourcePoint" />
            <mxPoint x="612" y="11" as="targetPoint" />
            <Array as="points">
              <mxPoint x="641" y="23" />
              <mxPoint x="641" y="-9" />
              <mxPoint x="612" y="-9" />
            </Array>
          </mxGeometry>
        </mxCell>
        <mxCell id="bQJ8I5ntVYJIwh4q4RdM-53" value="1110" style="ellipse;whiteSpace=wrap;html=1;aspect=fixed;fontSize=24;" parent="1" vertex="1">
          <mxGeometry x="554" y="8.75" width="80" height="80" as="geometry" />
        </mxCell>
        <mxCell id="bQJ8I5ntVYJIwh4q4RdM-55" value="1111" style="ellipse;whiteSpace=wrap;html=1;aspect=fixed;fontSize=24;" parent="1" vertex="1">
          <mxGeometry x="18" y="15" width="80" height="80" as="geometry" />
        </mxCell>
        <mxCell id="bQJ8I5ntVYJIwh4q4RdM-66" value="FLSx &amp;amp; !M0 &amp;amp; DCLS" style="text;html=1;strokeColor=none;fillColor=none;align=center;verticalAlign=middle;whiteSpace=wrap;rounded=0;fontSize=14;" parent="1" vertex="1">
          <mxGeometry x="217" y="148" width="143" height="30" as="geometry" />
        </mxCell>
        <mxCell id="bQJ8I5ntVYJIwh4q4RdM-68" value="FLSx &amp;amp; FPBx&amp;nbsp;" style="text;html=1;strokeColor=none;fillColor=none;align=center;verticalAlign=middle;whiteSpace=wrap;rounded=0;fontSize=14;" parent="1" vertex="1">
          <mxGeometry x="215" y="178" width="143" height="30" as="geometry" />
        </mxCell>
        <mxCell id="bQJ8I5ntVYJIwh4q4RdM-73" value="S:FS" style="text;html=1;strokeColor=none;fillColor=none;align=center;verticalAlign=middle;whiteSpace=wrap;rounded=0;fontSize=14;" parent="1" vertex="1">
          <mxGeometry x="703" y="62" width="60" height="30" as="geometry" />
        </mxCell>
        <mxCell id="bQJ8I5ntVYJIwh4q4RdM-75" value="Timer_5s.DN &amp;amp; DCSL" style="text;html=1;strokeColor=none;fillColor=none;align=center;verticalAlign=middle;whiteSpace=wrap;rounded=0;fontSize=14;" parent="1" vertex="1">
          <mxGeometry x="218" y="-126" width="143" height="30" as="geometry" />
        </mxCell>
        <mxCell id="bQJ8I5ntVYJIwh4q4RdM-76" value="Timer_PBC.DN &amp;amp; PBC" style="text;html=1;strokeColor=none;fillColor=none;align=center;verticalAlign=middle;whiteSpace=wrap;rounded=0;fontSize=14;" parent="1" vertex="1">
          <mxGeometry x="212" y="-103" width="151" height="30" as="geometry" />
        </mxCell>
        <mxCell id="bQJ8I5ntVYJIwh4q4RdM-78" style="edgeStyle=orthogonalEdgeStyle;orthogonalLoop=1;jettySize=auto;html=1;exitX=1;exitY=0;exitDx=0;exitDy=0;curved=1;" parent="1" source="bQJ8I5ntVYJIwh4q4RdM-9" target="bQJ8I5ntVYJIwh4q4RdM-53" edge="1">
          <mxGeometry relative="1" as="geometry">
            <mxPoint x="143" y="27" as="sourcePoint" />
            <mxPoint x="560" y="17" as="targetPoint" />
            <Array as="points">
              <mxPoint x="383" y="18" />
            </Array>
          </mxGeometry>
        </mxCell>
        <mxCell id="bQJ8I5ntVYJIwh4q4RdM-79" value="START" style="text;html=1;strokeColor=none;fillColor=none;align=center;verticalAlign=middle;whiteSpace=wrap;rounded=0;fontSize=14;" parent="1" vertex="1">
          <mxGeometry x="385" y="-21.25" width="143" height="30" as="geometry" />
        </mxCell>
        <mxCell id="bQJ8I5ntVYJIwh4q4RdM-81" value="" style="curved=1;endArrow=classic;html=1;rounded=0;entryX=1;entryY=1;entryDx=0;entryDy=0;" parent="1" source="bQJ8I5ntVYJIwh4q4RdM-53" target="bQJ8I5ntVYJIwh4q4RdM-9" edge="1">
          <mxGeometry width="50" height="50" relative="1" as="geometry">
            <mxPoint x="427" y="133" as="sourcePoint" />
            <mxPoint x="477" y="83" as="targetPoint" />
            <Array as="points">
              <mxPoint x="477" y="133" />
            </Array>
          </mxGeometry>
        </mxCell>
        <mxCell id="bQJ8I5ntVYJIwh4q4RdM-82" value="PBE5" style="text;html=1;strokeColor=none;fillColor=none;align=center;verticalAlign=middle;whiteSpace=wrap;rounded=0;fontSize=14;" parent="1" vertex="1">
          <mxGeometry x="385" y="65" width="143" height="30" as="geometry" />
        </mxCell>
        <mxCell id="bQJ8I5ntVYJIwh4q4RdM-84" value="" style="endArrow=classic;html=1;rounded=0;exitX=1;exitY=0.5;exitDx=0;exitDy=0;entryX=0;entryY=0.5;entryDx=0;entryDy=0;" parent="1" source="bQJ8I5ntVYJIwh4q4RdM-55" target="bQJ8I5ntVYJIwh4q4RdM-9" edge="1">
          <mxGeometry width="50" height="50" relative="1" as="geometry">
            <mxPoint x="113" y="90" as="sourcePoint" />
            <mxPoint x="163" y="40" as="targetPoint" />
          </mxGeometry>
        </mxCell>
        <mxCell id="bQJ8I5ntVYJIwh4q4RdM-85" value="PBE5" style="text;html=1;strokeColor=none;fillColor=none;align=center;verticalAlign=middle;whiteSpace=wrap;rounded=0;fontSize=14;" parent="1" vertex="1">
          <mxGeometry x="98" y="25" width="143" height="30" as="geometry" />
        </mxCell>
        <mxCell id="bQJ8I5ntVYJIwh4q4RdM-86" value="" style="curved=1;endArrow=classic;html=1;rounded=0;entryX=1;entryY=0.5;entryDx=0;entryDy=0;" parent="1" target="bQJ8I5ntVYJIwh4q4RdM-53" edge="1">
          <mxGeometry width="50" height="50" relative="1" as="geometry">
            <mxPoint x="727" y="52" as="sourcePoint" />
            <mxPoint x="749" y="23" as="targetPoint" />
            <Array as="points">
              <mxPoint x="749" y="73" />
              <mxPoint x="699" y="23" />
            </Array>
          </mxGeometry>
        </mxCell>
        <mxCell id="cK5XWAq3eN6KgPLJu0zg-1" style="edgeStyle=orthogonalEdgeStyle;curved=1;orthogonalLoop=1;jettySize=auto;html=1;exitX=1;exitY=0;exitDx=0;exitDy=0;" parent="1" edge="1">
          <mxGeometry relative="1" as="geometry">
            <mxPoint x="-322.70000000000005" y="1628.78" as="sourcePoint" />
            <mxPoint x="-339.9842712474622" y="1617.064271247462" as="targetPoint" />
            <Array as="points">
              <mxPoint x="-310.9842712474622" y="1629.064271247462" />
              <mxPoint x="-310.9842712474622" y="1597.064271247462" />
              <mxPoint x="-339.9842712474622" y="1597.064271247462" />
            </Array>
          </mxGeometry>
        </mxCell>
        <mxCell id="cK5XWAq3eN6KgPLJu0zg-2" value="0" style="ellipse;whiteSpace=wrap;html=1;aspect=fixed;fontSize=24;" parent="1" vertex="1">
          <mxGeometry x="-397" y="1615.08" width="80" height="80" as="geometry" />
        </mxCell>
        <mxCell id="cK5XWAq3eN6KgPLJu0zg-6" style="edgeStyle=orthogonalEdgeStyle;curved=1;orthogonalLoop=1;jettySize=auto;html=1;exitX=1;exitY=0;exitDx=0;exitDy=0;" parent="1" edge="1">
          <mxGeometry relative="1" as="geometry">
            <mxPoint x="-105.72000000000004" y="1719.72" as="sourcePoint" />
            <mxPoint x="-123.00427124746217" y="1708.0042712474622" as="targetPoint" />
            <Array as="points">
              <mxPoint x="-94.00427124746217" y="1720.0042712474622" />
              <mxPoint x="-94.00427124746217" y="1688.0042712474622" />
              <mxPoint x="-123.00427124746217" y="1688.0042712474622" />
            </Array>
          </mxGeometry>
        </mxCell>
        <mxCell id="cK5XWAq3eN6KgPLJu0zg-7" value="3" style="ellipse;whiteSpace=wrap;html=1;aspect=fixed;fontSize=24;" parent="1" vertex="1">
          <mxGeometry x="-180.02" y="1706.02" width="80" height="80" as="geometry" />
        </mxCell>
        <mxCell id="cK5XWAq3eN6KgPLJu0zg-8" style="edgeStyle=orthogonalEdgeStyle;curved=1;orthogonalLoop=1;jettySize=auto;html=1;exitX=1;exitY=0;exitDx=0;exitDy=0;" parent="1" edge="1">
          <mxGeometry relative="1" as="geometry">
            <mxPoint x="-531.7" y="1726.77" as="sourcePoint" />
            <mxPoint x="-548.9842712474622" y="1715.054271247462" as="targetPoint" />
            <Array as="points">
              <mxPoint x="-519.9842712474622" y="1727.054271247462" />
              <mxPoint x="-519.9842712474622" y="1695.054271247462" />
              <mxPoint x="-548.9842712474622" y="1695.054271247462" />
            </Array>
          </mxGeometry>
        </mxCell>
        <mxCell id="cK5XWAq3eN6KgPLJu0zg-9" value="5" style="ellipse;whiteSpace=wrap;html=1;aspect=fixed;fontSize=24;" parent="1" vertex="1">
          <mxGeometry x="-606" y="1713.07" width="80" height="80" as="geometry" />
        </mxCell>
        <mxCell id="cK5XWAq3eN6KgPLJu0zg-10" style="edgeStyle=orthogonalEdgeStyle;curved=1;orthogonalLoop=1;jettySize=auto;html=1;exitX=1;exitY=0;exitDx=0;exitDy=0;" parent="1" edge="1">
          <mxGeometry relative="1" as="geometry">
            <mxPoint x="-315.72" y="1845.72" as="sourcePoint" />
            <mxPoint x="-333.00427124746216" y="1834.0042712474622" as="targetPoint" />
            <Array as="points">
              <mxPoint x="-304.00427124746216" y="1846.0042712474622" />
              <mxPoint x="-304.00427124746216" y="1814.0042712474622" />
              <mxPoint x="-333.00427124746216" y="1814.0042712474622" />
            </Array>
          </mxGeometry>
        </mxCell>
        <mxCell id="cK5XWAq3eN6KgPLJu0zg-11" value="4" style="ellipse;whiteSpace=wrap;html=1;aspect=fixed;fontSize=24;" parent="1" vertex="1">
          <mxGeometry x="-394.99999999999994" y="1828" width="80" height="80" as="geometry" />
        </mxCell>
        <mxCell id="cK5XWAq3eN6KgPLJu0zg-12" style="edgeStyle=orthogonalEdgeStyle;curved=1;orthogonalLoop=1;jettySize=auto;html=1;exitX=1;exitY=0;exitDx=0;exitDy=0;" parent="1" edge="1">
          <mxGeometry relative="1" as="geometry">
            <mxPoint x="-102.70000000000005" y="1476.72" as="sourcePoint" />
            <mxPoint x="-119.98427124746217" y="1465.0042712474622" as="targetPoint" />
            <Array as="points">
              <mxPoint x="-90.98427124746217" y="1477.0042712474622" />
              <mxPoint x="-90.98427124746217" y="1445.0042712474622" />
              <mxPoint x="-119.98427124746217" y="1445.0042712474622" />
            </Array>
          </mxGeometry>
        </mxCell>
        <mxCell id="cK5XWAq3eN6KgPLJu0zg-13" value="2" style="ellipse;whiteSpace=wrap;html=1;aspect=fixed;fontSize=24;" parent="1" vertex="1">
          <mxGeometry x="-177" y="1463.02" width="80" height="80" as="geometry" />
        </mxCell>
        <mxCell id="cK5XWAq3eN6KgPLJu0zg-14" style="edgeStyle=orthogonalEdgeStyle;curved=1;orthogonalLoop=1;jettySize=auto;html=1;exitX=1;exitY=0;exitDx=0;exitDy=0;" parent="1" edge="1">
          <mxGeometry relative="1" as="geometry">
            <mxPoint x="-312.7" y="1402.74" as="sourcePoint" />
            <mxPoint x="-329.9842712474621" y="1391.0242712474621" as="targetPoint" />
            <Array as="points">
              <mxPoint x="-300.9842712474621" y="1403.0242712474621" />
              <mxPoint x="-300.9842712474621" y="1371.0242712474621" />
              <mxPoint x="-329.9842712474621" y="1371.0242712474621" />
            </Array>
          </mxGeometry>
        </mxCell>
        <mxCell id="cK5XWAq3eN6KgPLJu0zg-15" value="1" style="ellipse;whiteSpace=wrap;html=1;aspect=fixed;fontSize=24;" parent="1" vertex="1">
          <mxGeometry x="-386.99999999999994" y="1389.04" width="80" height="80" as="geometry" />
        </mxCell>
        <mxCell id="cK5XWAq3eN6KgPLJu0zg-16" style="edgeStyle=orthogonalEdgeStyle;curved=1;orthogonalLoop=1;jettySize=auto;html=1;exitX=1;exitY=0;exitDx=0;exitDy=0;" parent="1" edge="1">
          <mxGeometry relative="1" as="geometry">
            <mxPoint x="-519.7" y="1485.71" as="sourcePoint" />
            <mxPoint x="-536.9842712474622" y="1473.9942712474622" as="targetPoint" />
            <Array as="points">
              <mxPoint x="-507.9842712474621" y="1485.9942712474622" />
              <mxPoint x="-507.9842712474621" y="1453.9942712474622" />
              <mxPoint x="-536.9842712474622" y="1453.9942712474622" />
            </Array>
          </mxGeometry>
        </mxCell>
        <mxCell id="cK5XWAq3eN6KgPLJu0zg-17" value="6" style="ellipse;whiteSpace=wrap;html=1;aspect=fixed;fontSize=24;" parent="1" vertex="1">
          <mxGeometry x="-594" y="1472.01" width="80" height="80" as="geometry" />
        </mxCell>
        <mxCell id="cK5XWAq3eN6KgPLJu0zg-20" value="" style="curved=1;endArrow=classic;html=1;rounded=0;entryX=0.5;entryY=1;entryDx=0;entryDy=0;exitX=0.5;exitY=0;exitDx=0;exitDy=0;" parent="1" source="cK5XWAq3eN6KgPLJu0zg-2" target="cK5XWAq3eN6KgPLJu0zg-15" edge="1">
          <mxGeometry width="50" height="50" relative="1" as="geometry">
            <mxPoint x="-399" y="1597" as="sourcePoint" />
            <mxPoint x="-349" y="1547" as="targetPoint" />
            <Array as="points">
              <mxPoint x="-394" y="1535" />
            </Array>
          </mxGeometry>
        </mxCell>
        <mxCell id="cK5XWAq3eN6KgPLJu0zg-21" value="FPB1" style="text;html=1;strokeColor=none;fillColor=none;align=center;verticalAlign=middle;whiteSpace=wrap;rounded=0;fontSize=14;" parent="1" vertex="1">
          <mxGeometry x="-424" y="1472.01" width="60" height="30" as="geometry" />
        </mxCell>
        <mxCell id="cK5XWAq3eN6KgPLJu0zg-23" value="" style="curved=1;endArrow=classic;html=1;rounded=0;exitX=0.5;exitY=1;exitDx=0;exitDy=0;entryX=0.5;entryY=0;entryDx=0;entryDy=0;" parent="1" source="cK5XWAq3eN6KgPLJu0zg-15" target="cK5XWAq3eN6KgPLJu0zg-2" edge="1">
          <mxGeometry width="50" height="50" relative="1" as="geometry">
            <mxPoint x="-281" y="1548" as="sourcePoint" />
            <mxPoint x="-231" y="1498" as="targetPoint" />
            <Array as="points">
              <mxPoint x="-308" y="1520" />
            </Array>
          </mxGeometry>
        </mxCell>
        <mxCell id="cK5XWAq3eN6KgPLJu0zg-24" value="FLS1" style="text;html=1;strokeColor=none;fillColor=none;align=center;verticalAlign=middle;whiteSpace=wrap;rounded=0;fontSize=14;" parent="1" vertex="1">
          <mxGeometry x="-323" y="1477" width="60" height="30" as="geometry" />
        </mxCell>
        <mxCell id="cK5XWAq3eN6KgPLJu0zg-25" value="" style="curved=1;endArrow=classic;html=1;rounded=0;entryX=0.037;entryY=0.787;entryDx=0;entryDy=0;exitX=0.979;exitY=0.418;exitDx=0;exitDy=0;exitPerimeter=0;entryPerimeter=0;" parent="1" source="cK5XWAq3eN6KgPLJu0zg-2" target="cK5XWAq3eN6KgPLJu0zg-13" edge="1">
          <mxGeometry width="50" height="50" relative="1" as="geometry">
            <mxPoint x="-242" y="1695.08" as="sourcePoint" />
            <mxPoint x="-232" y="1549.08" as="targetPoint" />
            <Array as="points">
              <mxPoint x="-273" y="1564" />
            </Array>
          </mxGeometry>
        </mxCell>
        <mxCell id="cK5XWAq3eN6KgPLJu0zg-26" value="" style="curved=1;endArrow=classic;html=1;rounded=0;exitX=0;exitY=1;exitDx=0;exitDy=0;entryX=1;entryY=0.5;entryDx=0;entryDy=0;" parent="1" source="cK5XWAq3eN6KgPLJu0zg-13" target="cK5XWAq3eN6KgPLJu0zg-2" edge="1">
          <mxGeometry width="50" height="50" relative="1" as="geometry">
            <mxPoint x="-232" y="1549.08" as="sourcePoint" />
            <mxPoint x="-242" y="1695.08" as="targetPoint" />
            <Array as="points">
              <mxPoint x="-166" y="1578.08" />
            </Array>
          </mxGeometry>
        </mxCell>
        <mxCell id="cK5XWAq3eN6KgPLJu0zg-27" value="FPB2" style="text;html=1;strokeColor=none;fillColor=none;align=center;verticalAlign=middle;whiteSpace=wrap;rounded=0;fontSize=14;" parent="1" vertex="1">
          <mxGeometry x="-263" y="1513.02" width="60" height="30" as="geometry" />
        </mxCell>
        <mxCell id="cK5XWAq3eN6KgPLJu0zg-28" value="FLS3/FLS4" style="text;html=1;strokeColor=none;fillColor=none;align=center;verticalAlign=middle;whiteSpace=wrap;rounded=0;fontSize=14;" parent="1" vertex="1">
          <mxGeometry x="-177" y="1579" width="60" height="30" as="geometry" />
        </mxCell>
        <mxCell id="cK5XWAq3eN6KgPLJu0zg-31" value="" style="curved=1;endArrow=classic;html=1;rounded=0;entryX=0;entryY=0;entryDx=0;entryDy=0;exitX=1;exitY=1;exitDx=0;exitDy=0;" parent="1" source="cK5XWAq3eN6KgPLJu0zg-2" target="cK5XWAq3eN6KgPLJu0zg-7" edge="1">
          <mxGeometry width="50" height="50" relative="1" as="geometry">
            <mxPoint x="-364" y="1780.02" as="sourcePoint" />
            <mxPoint x="-219" y="1657.02" as="targetPoint" />
            <Array as="points">
              <mxPoint x="-236" y="1737" />
            </Array>
          </mxGeometry>
        </mxCell>
        <mxCell id="cK5XWAq3eN6KgPLJu0zg-32" value="" style="curved=1;endArrow=classic;html=1;rounded=0;exitX=0;exitY=0;exitDx=0;exitDy=0;entryX=1;entryY=1;entryDx=0;entryDy=0;" parent="1" source="cK5XWAq3eN6KgPLJu0zg-7" target="cK5XWAq3eN6KgPLJu0zg-2" edge="1">
          <mxGeometry width="50" height="50" relative="1" as="geometry">
            <mxPoint x="-210" y="1662.02" as="sourcePoint" />
            <mxPoint x="-362" y="1786.02" as="targetPoint" />
            <Array as="points">
              <mxPoint x="-211" y="1670" />
            </Array>
          </mxGeometry>
        </mxCell>
        <mxCell id="cK5XWAq3eN6KgPLJu0zg-33" value="FPB2 &amp;amp; FLS1" style="text;html=1;strokeColor=none;fillColor=none;align=center;verticalAlign=middle;whiteSpace=wrap;rounded=0;fontSize=14;" parent="1" vertex="1">
          <mxGeometry x="-274" y="1736" width="91" height="30" as="geometry" />
        </mxCell>
        <mxCell id="cK5XWAq3eN6KgPLJu0zg-34" value="FLS2" style="text;html=1;strokeColor=none;fillColor=none;align=center;verticalAlign=middle;whiteSpace=wrap;rounded=0;fontSize=14;" parent="1" vertex="1">
          <mxGeometry x="-231.5" y="1653" width="60" height="30" as="geometry" />
        </mxCell>
        <mxCell id="cK5XWAq3eN6KgPLJu0zg-35" value="" style="curved=1;endArrow=classic;html=1;rounded=0;entryX=0.5;entryY=0;entryDx=0;entryDy=0;exitX=0.5;exitY=1;exitDx=0;exitDy=0;" parent="1" source="cK5XWAq3eN6KgPLJu0zg-2" target="cK5XWAq3eN6KgPLJu0zg-11" edge="1">
          <mxGeometry width="50" height="50" relative="1" as="geometry">
            <mxPoint x="-387" y="1739" as="sourcePoint" />
            <mxPoint x="-226" y="1774" as="targetPoint" />
            <Array as="points">
              <mxPoint x="-319" y="1749" />
            </Array>
          </mxGeometry>
        </mxCell>
        <mxCell id="cK5XWAq3eN6KgPLJu0zg-36" value="" style="curved=1;endArrow=classic;html=1;rounded=0;exitX=0.5;exitY=0;exitDx=0;exitDy=0;entryX=0.5;entryY=1;entryDx=0;entryDy=0;" parent="1" source="cK5XWAq3eN6KgPLJu0zg-11" target="cK5XWAq3eN6KgPLJu0zg-2" edge="1">
          <mxGeometry width="50" height="50" relative="1" as="geometry">
            <mxPoint x="-226" y="1774" as="sourcePoint" />
            <mxPoint x="-387" y="1739" as="targetPoint" />
            <Array as="points">
              <mxPoint x="-402" y="1768" />
            </Array>
          </mxGeometry>
        </mxCell>
        <mxCell id="cK5XWAq3eN6KgPLJu0zg-37" value="FPB3 &amp;amp;&amp;nbsp;&lt;div&gt;(FLS1 / FLS2)&lt;/div&gt;" style="text;html=1;strokeColor=none;fillColor=none;align=center;verticalAlign=middle;whiteSpace=wrap;rounded=0;fontSize=14;" parent="1" vertex="1">
          <mxGeometry x="-334.5" y="1766" width="94" height="41" as="geometry" />
        </mxCell>
        <mxCell id="cK5XWAq3eN6KgPLJu0zg-38" value="FLS3" style="text;html=1;strokeColor=none;fillColor=none;align=center;verticalAlign=middle;whiteSpace=wrap;rounded=0;fontSize=14;" parent="1" vertex="1">
          <mxGeometry x="-438" y="1793.07" width="60" height="30" as="geometry" />
        </mxCell>
        <mxCell id="cK5XWAq3eN6KgPLJu0zg-39" value="" style="curved=1;endArrow=classic;html=1;rounded=0;entryX=1;entryY=0.5;entryDx=0;entryDy=0;exitX=0;exitY=1;exitDx=0;exitDy=0;" parent="1" source="cK5XWAq3eN6KgPLJu0zg-2" target="cK5XWAq3eN6KgPLJu0zg-9" edge="1">
          <mxGeometry width="50" height="50" relative="1" as="geometry">
            <mxPoint x="-462" y="1643" as="sourcePoint" />
            <mxPoint x="-467" y="1772" as="targetPoint" />
            <Array as="points">
              <mxPoint x="-418" y="1744" />
            </Array>
          </mxGeometry>
        </mxCell>
        <mxCell id="cK5XWAq3eN6KgPLJu0zg-40" value="" style="curved=1;endArrow=classic;html=1;rounded=0;exitX=1;exitY=0.5;exitDx=0;exitDy=0;entryX=0;entryY=1;entryDx=0;entryDy=0;" parent="1" source="cK5XWAq3eN6KgPLJu0zg-9" target="cK5XWAq3eN6KgPLJu0zg-2" edge="1">
          <mxGeometry width="50" height="50" relative="1" as="geometry">
            <mxPoint x="-467" y="1772" as="sourcePoint" />
            <mxPoint x="-469" y="1639" as="targetPoint" />
            <Array as="points">
              <mxPoint x="-464" y="1690" />
            </Array>
          </mxGeometry>
        </mxCell>
        <mxCell id="cK5XWAq3eN6KgPLJu0zg-41" value="FPB3 &amp;amp;&amp;nbsp;&lt;div&gt;(FLS1 / FLS2)&lt;/div&gt;" style="text;html=1;strokeColor=none;fillColor=none;align=center;verticalAlign=middle;whiteSpace=wrap;rounded=0;fontSize=14;" parent="1" vertex="1">
          <mxGeometry x="-491" y="1745.02" width="94" height="41" as="geometry" />
        </mxCell>
        <mxCell id="cK5XWAq3eN6KgPLJu0zg-42" value="FLS4" style="text;html=1;strokeColor=none;fillColor=none;align=center;verticalAlign=middle;whiteSpace=wrap;rounded=0;fontSize=14;" parent="1" vertex="1">
          <mxGeometry x="-514" y="1668" width="60" height="30" as="geometry" />
        </mxCell>
        <mxCell id="cK5XWAq3eN6KgPLJu0zg-43" value="" style="curved=1;endArrow=classic;html=1;rounded=0;entryX=1;entryY=1;entryDx=0;entryDy=0;exitX=0;exitY=0.5;exitDx=0;exitDy=0;" parent="1" source="cK5XWAq3eN6KgPLJu0zg-2" target="cK5XWAq3eN6KgPLJu0zg-17" edge="1">
          <mxGeometry width="50" height="50" relative="1" as="geometry">
            <mxPoint x="-392" y="1524" as="sourcePoint" />
            <mxPoint x="-533" y="1594" as="targetPoint" />
            <Array as="points">
              <mxPoint x="-437" y="1553" />
            </Array>
          </mxGeometry>
        </mxCell>
        <mxCell id="cK5XWAq3eN6KgPLJu0zg-44" value="" style="curved=1;endArrow=classic;html=1;rounded=0;exitX=1;exitY=1;exitDx=0;exitDy=0;entryX=0;entryY=0.5;entryDx=0;entryDy=0;" parent="1" source="cK5XWAq3eN6KgPLJu0zg-17" target="cK5XWAq3eN6KgPLJu0zg-2" edge="1">
          <mxGeometry width="50" height="50" relative="1" as="geometry">
            <mxPoint x="-533" y="1594" as="sourcePoint" />
            <mxPoint x="-392" y="1524" as="targetPoint" />
            <Array as="points">
              <mxPoint x="-489" y="1607" />
            </Array>
          </mxGeometry>
        </mxCell>
        <mxCell id="cK5XWAq3eN6KgPLJu0zg-45" value="FLS4" style="text;html=1;strokeColor=none;fillColor=none;align=center;verticalAlign=middle;whiteSpace=wrap;rounded=0;fontSize=14;" parent="1" vertex="1">
          <mxGeometry x="-526" y="1602" width="60" height="30" as="geometry" />
        </mxCell>
        <mxCell id="cK5XWAq3eN6KgPLJu0zg-46" value="FPB4" style="text;html=1;strokeColor=none;fillColor=none;align=center;verticalAlign=middle;whiteSpace=wrap;rounded=0;fontSize=14;" parent="1" vertex="1">
          <mxGeometry x="-487" y="1511" width="60" height="30" as="geometry" />
        </mxCell>
        <mxCell id="cK5XWAq3eN6KgPLJu0zg-85" value="M0" style="text;html=1;strokeColor=none;fillColor=none;align=center;verticalAlign=middle;whiteSpace=wrap;rounded=0;fontSize=14;" parent="1" vertex="1">
          <mxGeometry x="-323" y="1333" width="60" height="30" as="geometry" />
        </mxCell>
        <mxCell id="cK5XWAq3eN6KgPLJu0zg-86" value="M0" style="text;html=1;strokeColor=none;fillColor=none;align=center;verticalAlign=middle;whiteSpace=wrap;rounded=0;fontSize=14;" parent="1" vertex="1">
          <mxGeometry x="-92" y="1423" width="60" height="30" as="geometry" />
        </mxCell>
        <mxCell id="cK5XWAq3eN6KgPLJu0zg-88" value="M0" style="text;html=1;strokeColor=none;fillColor=none;align=center;verticalAlign=middle;whiteSpace=wrap;rounded=0;fontSize=14;" parent="1" vertex="1">
          <mxGeometry x="-630" y="1674" width="60" height="30" as="geometry" />
        </mxCell>
        <mxCell id="cK5XWAq3eN6KgPLJu0zg-89" value="M0 &amp;amp; CR0" style="text;html=1;strokeColor=none;fillColor=none;align=center;verticalAlign=middle;whiteSpace=wrap;rounded=0;fontSize=14;" parent="1" vertex="1">
          <mxGeometry x="-314" y="1846" width="91" height="30" as="geometry" />
        </mxCell>
        <mxCell id="cK5XWAq3eN6KgPLJu0zg-91" value="M0 &amp;amp; CR0" style="text;html=1;strokeColor=none;fillColor=none;align=center;verticalAlign=middle;whiteSpace=wrap;rounded=0;fontSize=14;" parent="1" vertex="1">
          <mxGeometry x="-92" y="1668" width="91" height="30" as="geometry" />
        </mxCell>
        <mxCell id="cK5XWAq3eN6KgPLJu0zg-92" value="M0 &amp;amp; CR0" style="text;html=1;strokeColor=none;fillColor=none;align=center;verticalAlign=middle;whiteSpace=wrap;rounded=0;fontSize=14;" parent="1" vertex="1">
          <mxGeometry x="-630" y="1420" width="91" height="30" as="geometry" />
        </mxCell>
        <mxCell id="cK5XWAq3eN6KgPLJu0zg-141" value="" style="curved=1;endArrow=classic;html=1;rounded=0;" parent="1" target="cK5XWAq3eN6KgPLJu0zg-15" edge="1">
          <mxGeometry width="50" height="50" relative="1" as="geometry">
            <mxPoint x="-456" y="1390" as="sourcePoint" />
            <mxPoint x="-481" y="1273" as="targetPoint" />
            <Array as="points">
              <mxPoint x="-434" y="1393" />
              <mxPoint x="-423" y="1424" />
            </Array>
          </mxGeometry>
        </mxCell>
        <mxCell id="cK5XWAq3eN6KgPLJu0zg-142" value="S : FS" style="text;html=1;strokeColor=none;fillColor=none;align=center;verticalAlign=middle;whiteSpace=wrap;rounded=0;fontSize=14;" parent="1" vertex="1">
          <mxGeometry x="-541.5" y="1368" width="91" height="30" as="geometry" />
        </mxCell>
        <mxCell id="cK5XWAq3eN6KgPLJu0zg-145" style="edgeStyle=orthogonalEdgeStyle;curved=1;orthogonalLoop=1;jettySize=auto;html=1;exitX=1;exitY=0;exitDx=0;exitDy=0;" parent="1" edge="1">
          <mxGeometry relative="1" as="geometry">
            <mxPoint x="-326.70000000000005" y="2291.7799999999997" as="sourcePoint" />
            <mxPoint x="-343.9842712474622" y="2280.064271247462" as="targetPoint" />
            <Array as="points">
              <mxPoint x="-314.9842712474622" y="2292.064271247462" />
              <mxPoint x="-314.9842712474622" y="2260.064271247462" />
              <mxPoint x="-343.9842712474622" y="2260.064271247462" />
            </Array>
          </mxGeometry>
        </mxCell>
        <mxCell id="cK5XWAq3eN6KgPLJu0zg-146" value="0" style="ellipse;whiteSpace=wrap;html=1;aspect=fixed;fontSize=24;" parent="1" vertex="1">
          <mxGeometry x="-401" y="2278.08" width="80" height="80" as="geometry" />
        </mxCell>
        <mxCell id="cK5XWAq3eN6KgPLJu0zg-147" style="edgeStyle=orthogonalEdgeStyle;curved=1;orthogonalLoop=1;jettySize=auto;html=1;exitX=1;exitY=0;exitDx=0;exitDy=0;" parent="1" edge="1">
          <mxGeometry relative="1" as="geometry">
            <mxPoint x="-109.72000000000004" y="2382.7200000000003" as="sourcePoint" />
            <mxPoint x="-127.00427124746217" y="2371.0042712474624" as="targetPoint" />
            <Array as="points">
              <mxPoint x="-98.00427124746217" y="2383.0042712474624" />
              <mxPoint x="-98.00427124746217" y="2351.0042712474624" />
              <mxPoint x="-127.00427124746217" y="2351.0042712474624" />
            </Array>
          </mxGeometry>
        </mxCell>
        <mxCell id="cK5XWAq3eN6KgPLJu0zg-148" value="13" style="ellipse;whiteSpace=wrap;html=1;aspect=fixed;fontSize=24;" parent="1" vertex="1">
          <mxGeometry x="-184.02" y="2369.02" width="80" height="80" as="geometry" />
        </mxCell>
        <mxCell id="cK5XWAq3eN6KgPLJu0zg-149" style="edgeStyle=orthogonalEdgeStyle;curved=1;orthogonalLoop=1;jettySize=auto;html=1;exitX=1;exitY=0;exitDx=0;exitDy=0;" parent="1" edge="1">
          <mxGeometry relative="1" as="geometry">
            <mxPoint x="-535.7" y="2389.77" as="sourcePoint" />
            <mxPoint x="-552.9842712474622" y="2378.054271247462" as="targetPoint" />
            <Array as="points">
              <mxPoint x="-523.9842712474622" y="2390.054271247462" />
              <mxPoint x="-523.9842712474622" y="2358.054271247462" />
              <mxPoint x="-552.9842712474622" y="2358.054271247462" />
            </Array>
          </mxGeometry>
        </mxCell>
        <mxCell id="cK5XWAq3eN6KgPLJu0zg-150" value="15" style="ellipse;whiteSpace=wrap;html=1;aspect=fixed;fontSize=24;" parent="1" vertex="1">
          <mxGeometry x="-610" y="2376.0699999999997" width="80" height="80" as="geometry" />
        </mxCell>
        <mxCell id="cK5XWAq3eN6KgPLJu0zg-151" style="edgeStyle=orthogonalEdgeStyle;curved=1;orthogonalLoop=1;jettySize=auto;html=1;exitX=1;exitY=0;exitDx=0;exitDy=0;" parent="1" edge="1">
          <mxGeometry relative="1" as="geometry">
            <mxPoint x="-319.72" y="2508.7200000000003" as="sourcePoint" />
            <mxPoint x="-337.00427124746216" y="2497.0042712474624" as="targetPoint" />
            <Array as="points">
              <mxPoint x="-308.00427124746216" y="2509.0042712474624" />
              <mxPoint x="-308.00427124746216" y="2477.0042712474624" />
              <mxPoint x="-337.00427124746216" y="2477.0042712474624" />
            </Array>
          </mxGeometry>
        </mxCell>
        <mxCell id="cK5XWAq3eN6KgPLJu0zg-152" value="14" style="ellipse;whiteSpace=wrap;html=1;aspect=fixed;fontSize=24;" parent="1" vertex="1">
          <mxGeometry x="-398.99999999999994" y="2491" width="80" height="80" as="geometry" />
        </mxCell>
        <mxCell id="cK5XWAq3eN6KgPLJu0zg-153" style="edgeStyle=orthogonalEdgeStyle;curved=1;orthogonalLoop=1;jettySize=auto;html=1;exitX=1;exitY=0;exitDx=0;exitDy=0;" parent="1" edge="1">
          <mxGeometry relative="1" as="geometry">
            <mxPoint x="-106.70000000000005" y="2139.7200000000003" as="sourcePoint" />
            <mxPoint x="-123.98427124746217" y="2128.0042712474624" as="targetPoint" />
            <Array as="points">
              <mxPoint x="-94.98427124746217" y="2140.0042712474624" />
              <mxPoint x="-94.98427124746217" y="2108.0042712474624" />
              <mxPoint x="-123.98427124746217" y="2108.0042712474624" />
            </Array>
          </mxGeometry>
        </mxCell>
        <mxCell id="cK5XWAq3eN6KgPLJu0zg-154" value="12" style="ellipse;whiteSpace=wrap;html=1;aspect=fixed;fontSize=24;" parent="1" vertex="1">
          <mxGeometry x="-181" y="2126.02" width="80" height="80" as="geometry" />
        </mxCell>
        <mxCell id="cK5XWAq3eN6KgPLJu0zg-155" style="edgeStyle=orthogonalEdgeStyle;curved=1;orthogonalLoop=1;jettySize=auto;html=1;exitX=1;exitY=0;exitDx=0;exitDy=0;" parent="1" edge="1">
          <mxGeometry relative="1" as="geometry">
            <mxPoint x="-316.7" y="2065.74" as="sourcePoint" />
            <mxPoint x="-333.9842712474621" y="2054.024271247462" as="targetPoint" />
            <Array as="points">
              <mxPoint x="-304.9842712474621" y="2066.024271247462" />
              <mxPoint x="-304.9842712474621" y="2034.0242712474621" />
              <mxPoint x="-333.9842712474621" y="2034.0242712474621" />
            </Array>
          </mxGeometry>
        </mxCell>
        <mxCell id="cK5XWAq3eN6KgPLJu0zg-156" value="11" style="ellipse;whiteSpace=wrap;html=1;aspect=fixed;fontSize=24;" parent="1" vertex="1">
          <mxGeometry x="-390.99999999999994" y="2052.04" width="80" height="80" as="geometry" />
        </mxCell>
        <mxCell id="cK5XWAq3eN6KgPLJu0zg-157" style="edgeStyle=orthogonalEdgeStyle;curved=1;orthogonalLoop=1;jettySize=auto;html=1;exitX=1;exitY=0;exitDx=0;exitDy=0;" parent="1" edge="1">
          <mxGeometry relative="1" as="geometry">
            <mxPoint x="-523.7" y="2148.71" as="sourcePoint" />
            <mxPoint x="-540.9842712474622" y="2136.994271247462" as="targetPoint" />
            <Array as="points">
              <mxPoint x="-511.9842712474621" y="2148.994271247462" />
              <mxPoint x="-511.9842712474621" y="2116.994271247462" />
              <mxPoint x="-540.9842712474622" y="2116.994271247462" />
            </Array>
          </mxGeometry>
        </mxCell>
        <mxCell id="cK5XWAq3eN6KgPLJu0zg-158" value="16" style="ellipse;whiteSpace=wrap;html=1;aspect=fixed;fontSize=24;" parent="1" vertex="1">
          <mxGeometry x="-598" y="2135.01" width="80" height="80" as="geometry" />
        </mxCell>
        <mxCell id="cK5XWAq3eN6KgPLJu0zg-159" value="" style="curved=1;endArrow=classic;html=1;rounded=0;entryX=0.5;entryY=1;entryDx=0;entryDy=0;exitX=0.5;exitY=0;exitDx=0;exitDy=0;" parent="1" source="cK5XWAq3eN6KgPLJu0zg-146" target="cK5XWAq3eN6KgPLJu0zg-156" edge="1">
          <mxGeometry width="50" height="50" relative="1" as="geometry">
            <mxPoint x="-403" y="2260" as="sourcePoint" />
            <mxPoint x="-353" y="2210" as="targetPoint" />
            <Array as="points">
              <mxPoint x="-398" y="2198" />
            </Array>
          </mxGeometry>
        </mxCell>
        <mxCell id="cK5XWAq3eN6KgPLJu0zg-160" value="PB1" style="text;html=1;strokeColor=none;fillColor=none;align=center;verticalAlign=middle;whiteSpace=wrap;rounded=0;fontSize=14;" parent="1" vertex="1">
          <mxGeometry x="-428" y="2135.01" width="60" height="30" as="geometry" />
        </mxCell>
        <mxCell id="cK5XWAq3eN6KgPLJu0zg-161" value="" style="curved=1;endArrow=classic;html=1;rounded=0;exitX=0.5;exitY=1;exitDx=0;exitDy=0;entryX=0.5;entryY=0;entryDx=0;entryDy=0;" parent="1" source="cK5XWAq3eN6KgPLJu0zg-156" target="cK5XWAq3eN6KgPLJu0zg-146" edge="1">
          <mxGeometry width="50" height="50" relative="1" as="geometry">
            <mxPoint x="-285" y="2211" as="sourcePoint" />
            <mxPoint x="-235" y="2161" as="targetPoint" />
            <Array as="points">
              <mxPoint x="-312" y="2183" />
            </Array>
          </mxGeometry>
        </mxCell>
        <mxCell id="cK5XWAq3eN6KgPLJu0zg-162" value="FLS1" style="text;html=1;strokeColor=none;fillColor=none;align=center;verticalAlign=middle;whiteSpace=wrap;rounded=0;fontSize=14;" parent="1" vertex="1">
          <mxGeometry x="-327" y="2140" width="60" height="30" as="geometry" />
        </mxCell>
        <mxCell id="cK5XWAq3eN6KgPLJu0zg-163" value="" style="curved=1;endArrow=classic;html=1;rounded=0;entryX=0.037;entryY=0.787;entryDx=0;entryDy=0;exitX=0.979;exitY=0.418;exitDx=0;exitDy=0;exitPerimeter=0;entryPerimeter=0;" parent="1" source="cK5XWAq3eN6KgPLJu0zg-146" target="cK5XWAq3eN6KgPLJu0zg-154" edge="1">
          <mxGeometry width="50" height="50" relative="1" as="geometry">
            <mxPoint x="-246" y="2358.08" as="sourcePoint" />
            <mxPoint x="-236" y="2212.08" as="targetPoint" />
            <Array as="points">
              <mxPoint x="-277" y="2227" />
            </Array>
          </mxGeometry>
        </mxCell>
        <mxCell id="cK5XWAq3eN6KgPLJu0zg-164" value="" style="curved=1;endArrow=classic;html=1;rounded=0;exitX=0;exitY=1;exitDx=0;exitDy=0;entryX=1;entryY=0.5;entryDx=0;entryDy=0;" parent="1" source="cK5XWAq3eN6KgPLJu0zg-154" target="cK5XWAq3eN6KgPLJu0zg-146" edge="1">
          <mxGeometry width="50" height="50" relative="1" as="geometry">
            <mxPoint x="-236" y="2212.08" as="sourcePoint" />
            <mxPoint x="-246" y="2358.08" as="targetPoint" />
            <Array as="points">
              <mxPoint x="-170" y="2241.08" />
            </Array>
          </mxGeometry>
        </mxCell>
        <mxCell id="cK5XWAq3eN6KgPLJu0zg-165" value="PB2" style="text;html=1;strokeColor=none;fillColor=none;align=center;verticalAlign=middle;whiteSpace=wrap;rounded=0;fontSize=14;" parent="1" vertex="1">
          <mxGeometry x="-267" y="2176.02" width="60" height="30" as="geometry" />
        </mxCell>
        <mxCell id="cK5XWAq3eN6KgPLJu0zg-166" value="FLS3/FLS4" style="text;html=1;strokeColor=none;fillColor=none;align=center;verticalAlign=middle;whiteSpace=wrap;rounded=0;fontSize=14;" parent="1" vertex="1">
          <mxGeometry x="-181" y="2242" width="60" height="30" as="geometry" />
        </mxCell>
        <mxCell id="cK5XWAq3eN6KgPLJu0zg-167" value="" style="curved=1;endArrow=classic;html=1;rounded=0;entryX=0;entryY=0;entryDx=0;entryDy=0;exitX=1;exitY=1;exitDx=0;exitDy=0;" parent="1" source="cK5XWAq3eN6KgPLJu0zg-146" target="cK5XWAq3eN6KgPLJu0zg-148" edge="1">
          <mxGeometry width="50" height="50" relative="1" as="geometry">
            <mxPoint x="-368" y="2443.02" as="sourcePoint" />
            <mxPoint x="-223" y="2320.02" as="targetPoint" />
            <Array as="points">
              <mxPoint x="-240" y="2400" />
            </Array>
          </mxGeometry>
        </mxCell>
        <mxCell id="cK5XWAq3eN6KgPLJu0zg-168" value="" style="curved=1;endArrow=classic;html=1;rounded=0;exitX=0;exitY=0;exitDx=0;exitDy=0;entryX=1;entryY=1;entryDx=0;entryDy=0;" parent="1" source="cK5XWAq3eN6KgPLJu0zg-148" target="cK5XWAq3eN6KgPLJu0zg-146" edge="1">
          <mxGeometry width="50" height="50" relative="1" as="geometry">
            <mxPoint x="-214" y="2325.02" as="sourcePoint" />
            <mxPoint x="-366" y="2449.02" as="targetPoint" />
            <Array as="points">
              <mxPoint x="-215" y="2333" />
            </Array>
          </mxGeometry>
        </mxCell>
        <mxCell id="cK5XWAq3eN6KgPLJu0zg-169" value="PB2 &amp;amp; FLS1" style="text;html=1;strokeColor=none;fillColor=none;align=center;verticalAlign=middle;whiteSpace=wrap;rounded=0;fontSize=14;" parent="1" vertex="1">
          <mxGeometry x="-278" y="2399" width="91" height="30" as="geometry" />
        </mxCell>
        <mxCell id="cK5XWAq3eN6KgPLJu0zg-170" value="FLS2" style="text;html=1;strokeColor=none;fillColor=none;align=center;verticalAlign=middle;whiteSpace=wrap;rounded=0;fontSize=14;" parent="1" vertex="1">
          <mxGeometry x="-235.5" y="2316" width="60" height="30" as="geometry" />
        </mxCell>
        <mxCell id="cK5XWAq3eN6KgPLJu0zg-171" value="" style="curved=1;endArrow=classic;html=1;rounded=0;entryX=0.5;entryY=0;entryDx=0;entryDy=0;exitX=0.5;exitY=1;exitDx=0;exitDy=0;" parent="1" source="cK5XWAq3eN6KgPLJu0zg-146" target="cK5XWAq3eN6KgPLJu0zg-152" edge="1">
          <mxGeometry width="50" height="50" relative="1" as="geometry">
            <mxPoint x="-391" y="2402" as="sourcePoint" />
            <mxPoint x="-230" y="2437" as="targetPoint" />
            <Array as="points">
              <mxPoint x="-323" y="2412" />
            </Array>
          </mxGeometry>
        </mxCell>
        <mxCell id="cK5XWAq3eN6KgPLJu0zg-172" value="" style="curved=1;endArrow=classic;html=1;rounded=0;exitX=0.5;exitY=0;exitDx=0;exitDy=0;entryX=0.5;entryY=1;entryDx=0;entryDy=0;" parent="1" source="cK5XWAq3eN6KgPLJu0zg-152" target="cK5XWAq3eN6KgPLJu0zg-146" edge="1">
          <mxGeometry width="50" height="50" relative="1" as="geometry">
            <mxPoint x="-230" y="2437" as="sourcePoint" />
            <mxPoint x="-391" y="2402" as="targetPoint" />
            <Array as="points">
              <mxPoint x="-406" y="2431" />
            </Array>
          </mxGeometry>
        </mxCell>
        <mxCell id="cK5XWAq3eN6KgPLJu0zg-173" value="PB3 &amp;amp;&amp;nbsp;&lt;div&gt;(FLS1 / FLS2)&lt;/div&gt;" style="text;html=1;strokeColor=none;fillColor=none;align=center;verticalAlign=middle;whiteSpace=wrap;rounded=0;fontSize=14;" parent="1" vertex="1">
          <mxGeometry x="-338.5" y="2429" width="94" height="41" as="geometry" />
        </mxCell>
        <mxCell id="cK5XWAq3eN6KgPLJu0zg-174" value="FLS3" style="text;html=1;strokeColor=none;fillColor=none;align=center;verticalAlign=middle;whiteSpace=wrap;rounded=0;fontSize=14;" parent="1" vertex="1">
          <mxGeometry x="-442" y="2456.0699999999997" width="60" height="30" as="geometry" />
        </mxCell>
        <mxCell id="cK5XWAq3eN6KgPLJu0zg-175" value="" style="curved=1;endArrow=classic;html=1;rounded=0;entryX=1;entryY=0.5;entryDx=0;entryDy=0;exitX=0;exitY=1;exitDx=0;exitDy=0;" parent="1" source="cK5XWAq3eN6KgPLJu0zg-146" target="cK5XWAq3eN6KgPLJu0zg-150" edge="1">
          <mxGeometry width="50" height="50" relative="1" as="geometry">
            <mxPoint x="-466" y="2306" as="sourcePoint" />
            <mxPoint x="-471" y="2435" as="targetPoint" />
            <Array as="points">
              <mxPoint x="-422" y="2407" />
            </Array>
          </mxGeometry>
        </mxCell>
        <mxCell id="cK5XWAq3eN6KgPLJu0zg-176" value="" style="curved=1;endArrow=classic;html=1;rounded=0;exitX=1;exitY=0.5;exitDx=0;exitDy=0;entryX=0;entryY=1;entryDx=0;entryDy=0;" parent="1" source="cK5XWAq3eN6KgPLJu0zg-150" target="cK5XWAq3eN6KgPLJu0zg-146" edge="1">
          <mxGeometry width="50" height="50" relative="1" as="geometry">
            <mxPoint x="-471" y="2435" as="sourcePoint" />
            <mxPoint x="-473" y="2302" as="targetPoint" />
            <Array as="points">
              <mxPoint x="-468" y="2353" />
            </Array>
          </mxGeometry>
        </mxCell>
        <mxCell id="cK5XWAq3eN6KgPLJu0zg-177" value="PB3 &amp;amp;&amp;nbsp;&lt;div&gt;(FLS1 / FLS2)&lt;/div&gt;" style="text;html=1;strokeColor=none;fillColor=none;align=center;verticalAlign=middle;whiteSpace=wrap;rounded=0;fontSize=14;" parent="1" vertex="1">
          <mxGeometry x="-495" y="2408.02" width="94" height="41" as="geometry" />
        </mxCell>
        <mxCell id="cK5XWAq3eN6KgPLJu0zg-178" value="FLS4" style="text;html=1;strokeColor=none;fillColor=none;align=center;verticalAlign=middle;whiteSpace=wrap;rounded=0;fontSize=14;" parent="1" vertex="1">
          <mxGeometry x="-518" y="2331" width="60" height="30" as="geometry" />
        </mxCell>
        <mxCell id="cK5XWAq3eN6KgPLJu0zg-179" value="" style="curved=1;endArrow=classic;html=1;rounded=0;entryX=1;entryY=1;entryDx=0;entryDy=0;exitX=0;exitY=0.5;exitDx=0;exitDy=0;" parent="1" source="cK5XWAq3eN6KgPLJu0zg-146" target="cK5XWAq3eN6KgPLJu0zg-158" edge="1">
          <mxGeometry width="50" height="50" relative="1" as="geometry">
            <mxPoint x="-396" y="2187" as="sourcePoint" />
            <mxPoint x="-537" y="2257" as="targetPoint" />
            <Array as="points">
              <mxPoint x="-441" y="2216" />
            </Array>
          </mxGeometry>
        </mxCell>
        <mxCell id="cK5XWAq3eN6KgPLJu0zg-180" value="" style="curved=1;endArrow=classic;html=1;rounded=0;exitX=1;exitY=1;exitDx=0;exitDy=0;entryX=0;entryY=0.5;entryDx=0;entryDy=0;" parent="1" source="cK5XWAq3eN6KgPLJu0zg-158" target="cK5XWAq3eN6KgPLJu0zg-146" edge="1">
          <mxGeometry width="50" height="50" relative="1" as="geometry">
            <mxPoint x="-537" y="2257" as="sourcePoint" />
            <mxPoint x="-396" y="2187" as="targetPoint" />
            <Array as="points">
              <mxPoint x="-493" y="2270" />
            </Array>
          </mxGeometry>
        </mxCell>
        <mxCell id="cK5XWAq3eN6KgPLJu0zg-181" value="FLS4" style="text;html=1;strokeColor=none;fillColor=none;align=center;verticalAlign=middle;whiteSpace=wrap;rounded=0;fontSize=14;" parent="1" vertex="1">
          <mxGeometry x="-530" y="2265" width="60" height="30" as="geometry" />
        </mxCell>
        <mxCell id="cK5XWAq3eN6KgPLJu0zg-182" value="PB4" style="text;html=1;strokeColor=none;fillColor=none;align=center;verticalAlign=middle;whiteSpace=wrap;rounded=0;fontSize=14;" parent="1" vertex="1">
          <mxGeometry x="-491" y="2174" width="60" height="30" as="geometry" />
        </mxCell>
        <mxCell id="cK5XWAq3eN6KgPLJu0zg-183" value="M0" style="text;html=1;strokeColor=none;fillColor=none;align=center;verticalAlign=middle;whiteSpace=wrap;rounded=0;fontSize=14;" parent="1" vertex="1">
          <mxGeometry x="-327" y="1996" width="60" height="30" as="geometry" />
        </mxCell>
        <mxCell id="cK5XWAq3eN6KgPLJu0zg-184" value="M0" style="text;html=1;strokeColor=none;fillColor=none;align=center;verticalAlign=middle;whiteSpace=wrap;rounded=0;fontSize=14;" parent="1" vertex="1">
          <mxGeometry x="-96" y="2086" width="60" height="30" as="geometry" />
        </mxCell>
        <mxCell id="cK5XWAq3eN6KgPLJu0zg-185" value="M0" style="text;html=1;strokeColor=none;fillColor=none;align=center;verticalAlign=middle;whiteSpace=wrap;rounded=0;fontSize=14;" parent="1" vertex="1">
          <mxGeometry x="-634" y="2337" width="60" height="30" as="geometry" />
        </mxCell>
        <mxCell id="cK5XWAq3eN6KgPLJu0zg-186" value="M0 &amp;amp; CR0" style="text;html=1;strokeColor=none;fillColor=none;align=center;verticalAlign=middle;whiteSpace=wrap;rounded=0;fontSize=14;" parent="1" vertex="1">
          <mxGeometry x="-318" y="2509" width="91" height="30" as="geometry" />
        </mxCell>
        <mxCell id="cK5XWAq3eN6KgPLJu0zg-187" value="M0 &amp;amp; CR0" style="text;html=1;strokeColor=none;fillColor=none;align=center;verticalAlign=middle;whiteSpace=wrap;rounded=0;fontSize=14;" parent="1" vertex="1">
          <mxGeometry x="-96" y="2331" width="91" height="30" as="geometry" />
        </mxCell>
        <mxCell id="cK5XWAq3eN6KgPLJu0zg-188" value="M0 &amp;amp; CR0" style="text;html=1;strokeColor=none;fillColor=none;align=center;verticalAlign=middle;whiteSpace=wrap;rounded=0;fontSize=14;" parent="1" vertex="1">
          <mxGeometry x="-634" y="2083" width="91" height="30" as="geometry" />
        </mxCell>
        <mxCell id="cK5XWAq3eN6KgPLJu0zg-189" value="" style="curved=1;endArrow=classic;html=1;rounded=0;" parent="1" target="cK5XWAq3eN6KgPLJu0zg-156" edge="1">
          <mxGeometry width="50" height="50" relative="1" as="geometry">
            <mxPoint x="-460" y="2053" as="sourcePoint" />
            <mxPoint x="-485" y="1936" as="targetPoint" />
            <Array as="points">
              <mxPoint x="-438" y="2056" />
              <mxPoint x="-427" y="2087" />
            </Array>
          </mxGeometry>
        </mxCell>
        <mxCell id="cK5XWAq3eN6KgPLJu0zg-190" value="S : FS" style="text;html=1;strokeColor=none;fillColor=none;align=center;verticalAlign=middle;whiteSpace=wrap;rounded=0;fontSize=14;" parent="1" vertex="1">
          <mxGeometry x="-545.5" y="2031" width="91" height="30" as="geometry" />
        </mxCell>
        <mxCell id="cK5XWAq3eN6KgPLJu0zg-193" value="&lt;font style=&quot;font-size: 18px;&quot;&gt;Normal State &amp;nbsp;0~16&lt;/font&gt;" style="ellipse;whiteSpace=wrap;html=1;" parent="1" vertex="1">
          <mxGeometry x="-609" y="2783" width="187" height="87" as="geometry" />
        </mxCell>
        <mxCell id="cK5XWAq3eN6KgPLJu0zg-194" value="" style="curved=1;endArrow=classic;html=1;rounded=0;exitX=1;exitY=0;exitDx=0;exitDy=0;entryX=0;entryY=0;entryDx=0;entryDy=0;" parent="1" source="cK5XWAq3eN6KgPLJu0zg-193" target="cK5XWAq3eN6KgPLJu0zg-198" edge="1">
          <mxGeometry width="50" height="50" relative="1" as="geometry">
            <mxPoint x="-356" y="2852" as="sourcePoint" />
            <mxPoint x="-177" y="2907" as="targetPoint" />
            <Array as="points">
              <mxPoint x="-234" y="2753" />
            </Array>
          </mxGeometry>
        </mxCell>
        <mxCell id="cK5XWAq3eN6KgPLJu0zg-197" value="PBE5" style="text;html=1;strokeColor=none;fillColor=none;align=center;verticalAlign=middle;whiteSpace=wrap;rounded=0;fontSize=14;" parent="1" vertex="1">
          <mxGeometry x="-305" y="2792" width="91" height="30" as="geometry" />
        </mxCell>
        <mxCell id="cK5XWAq3eN6KgPLJu0zg-198" value="&lt;font size=&quot;4&quot;&gt;Elevator Emergency State&lt;/font&gt;" style="ellipse;whiteSpace=wrap;html=1;" parent="1" vertex="1">
          <mxGeometry x="-203" y="2811" width="244" height="99" as="geometry" />
        </mxCell>
        <mxCell id="cK5XWAq3eN6KgPLJu0zg-199" style="edgeStyle=orthogonalEdgeStyle;curved=1;orthogonalLoop=1;jettySize=auto;html=1;exitX=1;exitY=0;exitDx=0;exitDy=0;" parent="1" edge="1">
          <mxGeometry relative="1" as="geometry">
            <mxPoint x="-459.72" y="2792.0000000000005" as="sourcePoint" />
            <mxPoint x="-477.00427124746216" y="2780.2842712474626" as="targetPoint" />
            <Array as="points">
              <mxPoint x="-448.00427124746216" y="2792.2842712474626" />
              <mxPoint x="-448.00427124746216" y="2760.2842712474626" />
              <mxPoint x="-477.00427124746216" y="2760.2842712474626" />
            </Array>
          </mxGeometry>
        </mxCell>
        <mxCell id="cK5XWAq3eN6KgPLJu0zg-200" style="edgeStyle=orthogonalEdgeStyle;curved=1;orthogonalLoop=1;jettySize=auto;html=1;exitX=1;exitY=0;exitDx=0;exitDy=0;" parent="1" edge="1">
          <mxGeometry relative="1" as="geometry">
            <mxPoint x="21.28" y="2833.7000000000003" as="sourcePoint" />
            <mxPoint x="3.9957287525378717" y="2821.9842712474624" as="targetPoint" />
            <Array as="points">
              <mxPoint x="33.00000000000003" y="2834" />
              <mxPoint x="33.00000000000003" y="2802" />
              <mxPoint x="4.000000000000028" y="2802" />
            </Array>
          </mxGeometry>
        </mxCell>
        <mxCell id="cK5XWAq3eN6KgPLJu0zg-201" value="ILE5" style="text;html=1;strokeColor=none;fillColor=none;align=center;verticalAlign=middle;whiteSpace=wrap;rounded=0;fontSize=14;" parent="1" vertex="1">
          <mxGeometry x="-20.99999999999997" y="2755.9999999999995" width="60" height="30" as="geometry" />
        </mxCell>
        <mxCell id="cK5XWAq3eN6KgPLJu0zg-202" value="" style="curved=1;endArrow=classic;html=1;rounded=0;exitX=0;exitY=1;exitDx=0;exitDy=0;entryX=1;entryY=0.5;entryDx=0;entryDy=0;" parent="1" source="cK5XWAq3eN6KgPLJu0zg-198" target="cK5XWAq3eN6KgPLJu0zg-204" edge="1">
          <mxGeometry width="50" height="50" relative="1" as="geometry">
            <mxPoint x="-419" y="3094" as="sourcePoint" />
            <mxPoint x="-391" y="2957" as="targetPoint" />
            <Array as="points">
              <mxPoint x="-160" y="2994" />
            </Array>
          </mxGeometry>
        </mxCell>
        <mxCell id="cK5XWAq3eN6KgPLJu0zg-203" value="START" style="text;html=1;strokeColor=none;fillColor=none;align=center;verticalAlign=middle;whiteSpace=wrap;rounded=0;fontSize=14;" parent="1" vertex="1">
          <mxGeometry x="-305" y="2917" width="91" height="30" as="geometry" />
        </mxCell>
        <mxCell id="cK5XWAq3eN6KgPLJu0zg-204" value="&lt;font style=&quot;font-size: 18px;&quot;&gt;State 1&lt;/font&gt;" style="ellipse;whiteSpace=wrap;html=1;" parent="1" vertex="1">
          <mxGeometry x="-613" y="2917" width="187" height="87" as="geometry" />
        </mxCell>
        <mxCell id="cK5XWAq3eN6KgPLJu0zg-205" style="edgeStyle=orthogonalEdgeStyle;curved=1;orthogonalLoop=1;jettySize=auto;html=1;exitX=1;exitY=0;exitDx=0;exitDy=0;" parent="1" edge="1">
          <mxGeometry relative="1" as="geometry">
            <mxPoint x="-456.22" y="2929.7200000000003" as="sourcePoint" />
            <mxPoint x="-473.50427124746216" y="2918.0042712474624" as="targetPoint" />
            <Array as="points">
              <mxPoint x="-444.50427124746216" y="2930.0042712474624" />
              <mxPoint x="-444.50427124746216" y="2898.0042712474624" />
              <mxPoint x="-473.50427124746216" y="2898.0042712474624" />
            </Array>
          </mxGeometry>
        </mxCell>
        <mxCell id="1HxoKY2s1yAvLXL49XYj-5" style="edgeStyle=orthogonalEdgeStyle;rounded=0;orthogonalLoop=1;jettySize=auto;html=1;exitX=1;exitY=0.75;exitDx=0;exitDy=0;fontSize=14;" edge="1" parent="1">
          <mxGeometry relative="1" as="geometry">
            <Array as="points">
              <mxPoint x="926" y="337" />
              <mxPoint x="926" y="539" />
              <mxPoint x="978" y="539" />
            </Array>
            <mxPoint x="908" y="337" as="sourcePoint" />
            <mxPoint x="987" y="537" as="targetPoint" />
          </mxGeometry>
        </mxCell>
        <mxCell id="1HxoKY2s1yAvLXL49XYj-6" value="Door FSM" style="rounded=1;whiteSpace=wrap;html=1;fontSize=14;" vertex="1" parent="1">
          <mxGeometry x="993" y="515" width="120" height="60" as="geometry" />
        </mxCell>
      </root>
    </mxGraphModel>
  </diagram>
</mxfile>
